# xmcd
#
# Track frame offsets:
#	150
#	15840
#	33251
#	49220
#	79328
#	95213
#	124169
#	148487
#	168613
#	191948
#	207248
#	228463
#	252540
#	268244
#	283109
#	317678
#
# Disc length: 4640 seconds
#
# Revision: 1
# Processed by: cddbd v1.5.1PL0 Copyright (c) Steve Scherf et al.
# Submitted via: audiograbber 1.83.01
#
DISCID=fb121e10
DTITLE=Various Artist - Club Shoot 001. (2004)
DYEAR=1900
DGENRE=
TTITLE0=Tube and Berger. - Geradeaus. (Radio Edit)
TTITLE1=Geeza. - I Know You Don't Like Me.
TTITLE2=Dj Dado and Dr. Feelix. - About Love.
TTITLE3=Moonbootica. - Roll The Dice.
TTITLE4=Space Park Project feat. Chiara. - Space Park Nignhs. (Instrumental)
TTITLE5=The Funkstar Sessions. - Sessions.
TTITLE6=Gum Base. - Real.
TTITLE7=Klub Rockerz. - Get Down Everybody.
TTITLE8=Raccoon. - Fly With Me. (Clubtone Rmx)
TTITLE9=Belushi. - Put Your Hands In The Air. (Uuh Ooh)
TTITLE10=Digital I. - Move Your Body.
TTITLE11=Dj Rad. - Come Home.
TTITLE12=Dikheadz. - Wir Brauchen Bass.
TTITLE13=Greg Folter. - Tease. (Original Radio Mix)
TTITLE14=Yakooza. - French Kiss. (Dj Wag Mix)
TTITLE15=Special D. - Home Alone. (Megara vs. Dj Lee Rmx)
EXTD=
EXTT0=
EXTT1=
EXTT2=
EXTT3=
EXTT4=
EXTT5=
EXTT6=
EXTT7=
EXTT8=
EXTT9=
EXTT10=
EXTT11=
EXTT12=
EXTT13=
EXTT14=
EXTT15=
PLAYORDER=
